# xmcd
#
# Track frame offsets:
#	150
#	20046
#	45094
#	61959
#	85199
#	105876
#	122882
#	142742
#	161180
#	178874
#	192867
#	207508
#
# Disc length: 3076 seconds
#
# Revision: 0
# Processed by: cddbd v1.5.1PL2 Copyright (c) Steve Scherf et al.
# Submitted via: EasyCDDAExtractor 9.1.3.1
#
DISCID=9d0c020c
DTITLE=Gipsy Kings - Mosaique
DYEAR=1900
DGENRE=Latin
TTITLE0=Caminando Por la Calle
TTITLE1=Viento Del Arena
TTITLE2=El Camino
TTITLE3=Mosaique
TTITLE4=Serana
TTITLE5=Liberte
TTITLE6=Volare
TTITLE7=Trista pena
TTITLE8=Liberté
TTITLE9=Serana
TTITLE10=Bossamba
TTITLE11=Vamos a bailar
EXTD=
EXTT0=
EXTT1=
EXTT2=
EXTT3=
EXTT4=
EXTT5=
EXTT6=
EXTT7=
EXTT8=
EXTT9=
EXTT10=
EXTT11=
PLAYORDER=
